<svg xmlns="http://www.w3.org/2000/svg" viewBox="0 0 64 64" width="64" height="64">
  <!-- Background Circle -->
  <circle cx="32" cy="32" r="30" fill="#0B2545" />
  <circle cx="32" cy="32" r="28" fill="#0B2545" stroke="#B9A55A" stroke-width="2" />
  
  <!-- Scissors -->
  <g transform="translate(12, 12) scale(0.8)">
    <!-- Scissor Handles -->
    <circle cx="12" cy="45" r="6" fill="#C72C41" />
    <circle cx="40" cy="45" r="6" fill="#C72C41" />
    
    <!-- Scissor Blades -->
    <path d="M12 39L30 20M40 39L22 20" stroke="#F8F8F8" stroke-width="3" stroke-linecap="round" />
    <path d="M14 31C18 27 22 23 26 19M38 31C34 27 30 23 26 19" fill="none" stroke="#F8F8F8" stroke-width="3" stroke-linecap="round" />
  </g>
  
  <!-- Comb -->
  <g transform="translate(22, 8)">
    <rect x="0" y="0" width="20" height="8" rx="1" fill="#B9A55A" />
    <rect x="2" y="8" width="2" height="10" rx="1" fill="#B9A55A" />
    <rect x="6" y="8" width="2" height="12" rx="1" fill="#B9A55A" />
    <rect x="10" y="8" width="2" height="14" rx="1" fill="#B9A55A" />
    <rect x="14" y="8" width="2" height="12" rx="1" fill="#B9A55A" />
    <rect x="18" y="8" width="2" height="10" rx="1" fill="#B9A55A" />
  </g>
</svg>